# xmcd CD database file
#
# Track frame offsets:
#	150
#	12395
#	22619
#	34318
#	44162
#	56200
#	68527
#	78689
#	89586
#	101792
#
# Disc length: 1518 seconds
#
# Revision: 0
# Processed by: cddbd v1.4PL0 Copyright (c) Steve Scherf et al.
# Submitted via: CDex 1.40Beta9
#
DISCID=8505ec0a
DTITLE=Eddy Arnold - super hits
DYEAR=1900
DGENRE=Country
TTITLE0=I'll hold you in my heart
TTITLE1=Anytime
TTITLE2=Don't rob another man's castle
TTITLE3=I wanna play house with you
TTITLE4=Make the world go away
TTITLE5=Cattle call
TTITLE6=There's been a change in me
TTITLE7=Bouquet of roses
TTITLE8=Texarkana baby
TTITLE9=I want to go with you
EXTD=ID3G: 2
EXTT0=
EXTT1=
EXTT2=
EXTT3=
EXTT4=
EXTT5=
EXTT6=
EXTT7=
EXTT8=
EXTT9=
PLAYORDER=
